<svg xmlns="http://www.w3.org/2000/svg" viewBox="0,0,14540,10080">
  <defs></defs>
  <rect x="0" y="0" width="14540" height="10080" fill="white"/>
  <circle r="100"/>
  <path fill="none" stroke="#f90" vector-effect="non-scaling-stroke" d="M500,4000L0,4000M0,4100L500,4100M500,4200L0,4200M0,4300L500,4300M500,4400L0,4400M0,4500L500,4500M600,4500L600,4000M700,4000L700,4500M800,4500L800,4000M900,4000L900,4500M1000,4500L1000,4000M1100,4000L1100,4500M1200,4100L1300,4000M1400,4000L1200,4200M1200,4300L1500,4000M1600,4000L1200,4400M1200,4500L1700,4000M1300,4500L1700,4100M1700,4200L1400,4500M1500,4500L1700,4300M1700,4400L1600,4500M2050,4000L2300,4500L1800,4500ZM2850,4250A250,250,0,1,1,2350,4250A250,250,0,1,1,2850,4250M2750,4250A150,150,0,1,0,2450,4250A150,150,0,1,0,2750,4250M2650,4250A50,50,0,1,1,2550,4250A50,50,0,1,1,2650,4250M3023.2233047033633,4426.776695296637A250,250,0,1,1,3376.7766952966367,4426.776695296637L3306.0660171779823,4356.066017177982A150,150,0,1,0,3093.9339828220177,4356.066017177982ZM3750,4500L3580.9016994374947,4500A50,50,0,0,1,3536.180339887499,4427.639320225002L3705.2786404500043,4089.4427190999913A50,50,0,0,1,3794.7213595499957,4089.4427190999913L3963.819660112501,4427.639320225002A50,50,0,0,1,3919.0983005625053,4500ZM4100,4000Q4350,4100,4600,4000M4100,4100Q4350,4000,4600,4100M4100,4200Q4350,4300,4600,4200M4100,4300Q4350,4200,4600,4300M4100,4400Q4350,4500,4600,4400M4100,4500Q4350,4400,4600,4500M4700,4000C4950,4300,4950,3700,5200,4000M4700,4100C4950,4600,4950,3600,5200,4100M4700,4200C4950,4900,4950,3500,5200,4200M4700,4300C4950,5200,4950,3400,5200,4300M4700,4400C4950,5500,4950,3300,5200,4400M4700,4500C4950,5800,4950,3200,5200,4500M0,0L155,0A910,910,0,1,1,155.00000000000006,1820L0,1820L0,1420L155.00000000000003,1420A510,510,0,1,0,155.00000000000003,400L0,400ZM725,0L1365,0A555,555,0,0,1,1791.6250052194177,909.9874714993923L1791.6250052194177,910.0125285006077A555,555,0,0,1,1365,1820L725,1820L725.1061271636776,1819.9472335638109A1073.79,1073.79,0,0,0,1099.9526046341066,1419.989744107877L1365,1420A155,155,0,1,0,1365,1110L1210,1110L1210.0100293745356,1109.9469980248296A1073.79,1073.79,0,0,0,1210.0100293745356,710.0530019751704L1365,710A155,155,0,1,0,1365,400L1100,400L1099.9526046341066,400.010255892123A1073.79,1073.79,0,0,0,725.1061271636776,0.05276643618913113ZM0,2760L0,2760L0,2100M440,2760L440,2760L440,2100M0,2320L0,2320L440,2320M505.99999999999994,2760L505.99999999999994,2760L505.99999999999994,2100L946,2100L946,2540L505.99999999999994,2540M1452,2100L1452,2100L1011.9999999999999,2100L1011.9999999999999,2760L1452,2760L1452,2540L1232,2540M1957.9999999999998,2760L1957.9999999999998,2760L1517.9999999999998,2760L1517.9999999999998,2100" />
  </svg>